<svg version="1.1" xmlns="http://www.w3.org/2000/svg" viewBox="0 0 91.72003297955337 117.95906943548752" width="183.44006595910673" height="235.91813887097504">
  <!-- svg-source:excalidraw -->
  
  <defs>
    <style class="style-fonts"></style>
  </defs>
  <g transform="translate(25.743421873560465 23.41106307747745) rotate(0 0.5830896990207748 39.35855468390125)" stroke="none"><path fill="#e03131" d="M 3.83,0 Q 3.83,0 3.91,3.01 4.00,6.03 4.10,8.82 4.20,11.61 4.05,15.65 3.90,19.68 3.73,24.59 3.55,29.49 3.43,34.92 3.30,40.36 3.21,45.18 3.12,50.01 3.22,54.52 3.32,59.03 3.69,62.24 4.07,65.46 4.37,67.90 4.67,70.34 5.01,74.50 5.35,78.66 5.25,79.33 5.14,80.00 4.83,80.61 4.52,81.21 4.04,81.68 3.55,82.15 2.94,82.44 2.33,82.73 1.65,82.81 0.98,82.90 0.32,82.76 -0.33,82.62 -0.92,82.28 -1.50,81.93 -1.95,81.42 -2.39,80.91 -2.65,80.28 -2.91,79.66 -2.95,78.98 -3.00,78.31 -2.82,77.65 -2.65,77.00 -2.27,76.43 -1.90,75.87 -1.37,75.45 -0.83,75.04 -0.19,74.81 0.44,74.59 1.11,74.58 1.79,74.57 2.44,74.78 3.08,74.99 3.62,75.40 4.17,75.80 4.55,76.36 4.94,76.91 5.13,77.56 5.32,78.21 5.29,78.89 5.26,79.57 5.02,80.20 4.77,80.83 4.34,81.35 3.91,81.87 3.33,82.23 2.75,82.58 2.09,82.74 1.43,82.89 0.76,82.82 0.09,82.76 -0.52,82.48 -1.14,82.20 -1.64,81.74 -2.13,81.28 -2.46,80.69 -2.78,80.09 -2.90,79.43 -3.02,78.76 -3.02,78.76 -3.02,78.76 -2.83,74.71 -2.64,70.65 -2.54,68.29 -2.44,65.94 -2.54,62.59 -2.64,59.25 -2.88,54.63 -3.12,50.01 -3.21,45.18 -3.30,40.36 -3.43,34.92 -3.55,29.49 -3.73,24.59 -3.90,19.68 -4.05,15.65 -4.20,11.61 -4.10,8.82 -4.00,6.03 -3.91,3.01 -3.83,0 -3.77,-0.45 -3.72,-0.91 -3.55,-1.34 -3.39,-1.78 -3.13,-2.16 -2.86,-2.54 -2.52,-2.84 -2.17,-3.15 -1.76,-3.36 -1.35,-3.58 -0.91,-3.69 -0.46,-3.80 0.00,-3.80 0.46,-3.80 0.91,-3.69 1.35,-3.58 1.76,-3.36 2.17,-3.15 2.52,-2.84 2.86,-2.54 3.13,-2.16 3.39,-1.78 3.55,-1.34 3.72,-0.91 3.77,-0.45 3.83,0.00 3.83,0.00 L 3.83,0 Z"></path></g><g transform="translate(66.55970080501362 10) rotate(0 -28.27985040250681 26.530581305444542)" stroke="none"><path fill="#e03131" d="M 2.18,3.32 Q 2.18,3.32 -4.28,7.36 -10.74,11.40 -16.72,16.30 -22.69,21.20 -27.94,26.09 -33.19,30.99 -37.08,35.18 -40.96,39.36 -44.00,42.67 -47.04,45.97 -48.82,48.33 -50.61,50.69 -52.14,52.98 -53.67,55.27 -54.10,55.68 -54.53,56.08 -55.06,56.32 -55.60,56.57 -56.18,56.63 -56.77,56.69 -57.34,56.56 -57.92,56.43 -58.42,56.13 -58.93,55.82 -59.30,55.37 -59.68,54.92 -59.90,54.37 -60.11,53.82 -60.14,53.23 -60.17,52.64 -60.01,52.08 -59.85,51.51 -59.52,51.02 -59.19,50.54 -58.71,50.18 -58.24,49.83 -57.68,49.65 -57.13,49.46 -56.54,49.46 -55.95,49.47 -55.39,49.66 -54.83,49.85 -54.37,50.21 -53.90,50.57 -53.57,51.06 -53.24,51.54 -53.09,52.11 -52.93,52.68 -52.97,53.27 -53.00,53.86 -53.22,54.40 -53.44,54.95 -53.83,55.40 -54.21,55.84 -54.72,56.14 -55.22,56.45 -55.80,56.57 -56.38,56.69 -56.96,56.63 -57.55,56.56 -58.08,56.31 -58.61,56.06 -59.04,55.65 -59.46,55.24 -59.74,54.72 -60.01,54.20 -60.10,53.62 -60.20,53.04 -60.10,52.46 -60.00,51.88 -59.72,51.36 -59.44,50.84 -59.44,50.84 -59.44,50.84 -57.51,48.62 -55.58,46.41 -53.47,44.25 -51.36,42.09 -48.39,38.71 -45.42,35.32 -41.49,30.88 -37.55,26.43 -32.29,21.26 -27.02,16.09 -20.87,10.72 -14.73,5.36 -8.45,1.01 -2.18,-3.32 -1.75,-3.53 -1.32,-3.75 -0.85,-3.85 -0.39,-3.95 0.08,-3.94 0.56,-3.93 1.03,-3.81 1.49,-3.68 1.91,-3.45 2.33,-3.22 2.68,-2.89 3.03,-2.57 3.29,-2.17 3.56,-1.77 3.72,-1.31 3.88,-0.86 3.93,-0.38 3.97,0.08 3.90,0.56 3.84,1.03 3.66,1.48 3.48,1.92 3.19,2.31 2.91,2.70 2.55,3.01 2.18,3.32 2.18,3.32 L 2.18,3.32 Z"></path></g><g transform="translate(29.241960067685056 46.73465103830782) rotate(0 26.239036455934155 30.612209198589852)" stroke="none"><path fill="#e03131" d="M 2.79,-2.00 Q 2.79,-2.00 7.39,4.59 12.00,11.19 18.55,19.12 25.10,27.06 29.71,32.29 34.32,37.53 38.27,41.76 42.22,46.00 45.58,49.68 48.94,53.35 51.74,56.32 54.54,59.29 54.79,59.67 55.05,60.05 55.17,60.49 55.28,60.93 55.26,61.39 55.23,61.85 55.06,62.27 54.88,62.69 54.59,63.04 54.29,63.39 53.89,63.62 53.50,63.85 53.05,63.95 52.61,64.04 52.15,63.99 51.70,63.94 51.28,63.74 50.87,63.55 50.54,63.23 50.21,62.91 50.00,62.51 49.79,62.10 49.72,61.65 49.65,61.20 49.72,60.75 49.80,60.30 50.02,59.90 50.24,59.49 50.57,59.18 50.90,58.87 51.32,58.68 51.74,58.49 52.19,58.44 52.65,58.40 53.09,58.50 53.54,58.60 53.93,58.84 54.32,59.08 54.61,59.43 54.91,59.78 55.07,60.21 55.24,60.63 55.26,61.09 55.28,61.55 55.15,61.98 55.03,62.42 54.77,62.80 54.51,63.18 54.14,63.45 53.78,63.73 53.34,63.87 52.91,64.01 52.45,64.01 52.00,64.00 51.56,63.86 51.13,63.71 50.77,63.43 50.41,63.15 50.41,63.15 50.41,63.15 47.63,60.15 44.85,57.15 41.46,53.53 38.07,49.92 34.00,45.69 29.94,41.45 25.18,36.22 20.42,30.99 13.59,22.97 6.77,14.95 1.98,8.47 -2.79,2.00 -2.99,1.64 -3.19,1.27 -3.29,0.87 -3.40,0.47 -3.41,0.06 -3.42,-0.35 -3.32,-0.75 -3.23,-1.16 -3.05,-1.53 -2.86,-1.90 -2.59,-2.21 -2.32,-2.53 -1.99,-2.77 -1.65,-3.01 -1.26,-3.16 -0.88,-3.32 -0.47,-3.38 -0.06,-3.43 0.34,-3.39 0.76,-3.35 1.15,-3.21 1.54,-3.07 1.88,-2.84 2.23,-2.61 2.51,-2.31 2.79,-2.00 2.79,-2.00 L 2.79,-2.00 Z"></path></g></svg>
